<svg width="25" height="25" viewBox="0 0 25 25" fill="none" xmlns="http://www.w3.org/2000/svg">
<g clip-path="url(#clip0_7_190)">
<path d="M17.4001 18.6426C17.1529 18.3511 17.0293 18.0201 17.0293 17.6496C17.0293 17.28 17.1529 16.9719 17.4001 16.7253L19.8946 14.2361H10.22C9.83792 14.2361 9.5179 14.1069 9.25991 13.8486C9.00102 13.5912 8.87158 13.2718 8.87158 12.8906C8.87158 12.5094 9.00102 12.1896 9.25991 11.9313C9.5179 11.6739 9.83792 11.5451 10.22 11.5451H19.8946L17.4001 9.05599C17.1305 8.78689 16.9956 8.46756 16.9956 8.098C16.9956 7.72755 17.1305 7.40777 17.4001 7.13867C17.6473 6.86957 17.9566 6.73503 18.3278 6.73503C18.6982 6.73503 19.007 6.85836 19.2542 7.10503L24.1084 11.9488C24.2432 12.0833 24.3389 12.2291 24.3956 12.3861C24.4513 12.543 24.4792 12.7112 24.4792 12.8906C24.4792 13.07 24.4513 13.2382 24.3956 13.3952C24.3389 13.5522 24.2432 13.6979 24.1084 13.8325L19.2542 18.6762C18.962 18.9677 18.642 19.0965 18.2941 19.0624C17.9453 19.0292 17.6473 18.8893 17.4001 18.6426ZM3.47803 25C2.73641 25 2.10132 24.7367 1.57275 24.2102C1.04508 23.6828 0.78125 23.049 0.78125 22.309V3.47222C0.78125 2.7322 1.04508 2.09848 1.57275 1.57105C2.10132 1.04452 2.73641 0.78125 3.47803 0.78125H11.5684C11.9504 0.78125 12.2709 0.909968 12.5298 1.1674C12.7877 1.42574 12.9167 1.74552 12.9167 2.12674C12.9167 2.50796 12.7877 2.82729 12.5298 3.08472C12.2709 3.34306 11.9504 3.47222 11.5684 3.47222H3.47803V22.309H11.5684C11.9504 22.309 12.2709 22.4382 12.5298 22.6965C12.7877 22.954 12.9167 23.2733 12.9167 23.6545C12.9167 24.0357 12.7877 24.3551 12.5298 24.6125C12.2709 24.8708 11.9504 25 11.5684 25H3.47803Z" fill="#EFECE7"/>
</g>
<defs>
<clipPath id="clip0_7_190">
<rect width="25" height="25" fill="white"/>
</clipPath>
</defs>
</svg>
